<?xml version="1.0" encoding="utf-8"?>
<!-- Generator: Adobe Illustrator 25.2.0, SVG Export Plug-In . SVG Version: 6.00 Build 0)  -->
<svg version="1.1" xmlns="http://www.w3.org/2000/svg" xmlns:xlink="http://www.w3.org/1999/xlink" x="0px" y="0px"
	 viewBox="0 0 500 500" style="enable-background:new 0 0 500 500;" xml:space="preserve">
<style type="text/css">
	.st0{display:none;}
	.st1{display:inline;}
	.st2{fill:#FFFFFF;}
	.st3{fill:#D35959;}
	.st4{fill:#262626;}
	.st5{fill-rule:evenodd;clip-rule:evenodd;fill:#A43A8F;}
	.st6{fill-rule:evenodd;clip-rule:evenodd;fill:#962480;}
	.st7{fill-rule:evenodd;clip-rule:evenodd;fill:#E3B633;}
	.st8{fill-rule:evenodd;clip-rule:evenodd;fill:#DA882E;}
	.st9{fill-rule:evenodd;clip-rule:evenodd;fill:#65ACDB;}
	.st10{fill-rule:evenodd;clip-rule:evenodd;fill:#4D85B0;}
	.st11{fill-rule:evenodd;clip-rule:evenodd;fill:#D2E9F7;}
	.st12{fill-rule:evenodd;clip-rule:evenodd;fill:#8BCBF3;}
	.st13{fill-rule:evenodd;clip-rule:evenodd;fill:#FFFFFF;}
	.st14{fill-rule:evenodd;clip-rule:evenodd;fill:#D66E2C;}
	.st15{fill-rule:evenodd;clip-rule:evenodd;fill:#9D2429;}
	.st16{fill-rule:evenodd;clip-rule:evenodd;fill:#7A1E20;}
	.st17{fill-rule:evenodd;clip-rule:evenodd;fill:#7CB651;}
	.st18{fill-rule:evenodd;clip-rule:evenodd;fill:#699D4D;}
	.st19{fill-rule:evenodd;clip-rule:evenodd;fill:#E6E669;}
	.st20{fill-rule:evenodd;clip-rule:evenodd;fill:#C3D144;}
	.st21{fill-rule:evenodd;clip-rule:evenodd;fill:#6B4422;}
	.st22{fill-rule:evenodd;clip-rule:evenodd;fill:#52371A;}
	.st23{fill-rule:evenodd;clip-rule:evenodd;fill:#A0632F;}
	.st24{fill-rule:evenodd;clip-rule:evenodd;fill:#805029;}
	.st25{fill-rule:evenodd;clip-rule:evenodd;fill:#A19C95;}
	.st26{fill-rule:evenodd;clip-rule:evenodd;fill:#8A7E6B;}
	.st27{fill-rule:evenodd;clip-rule:evenodd;fill:#857C70;}
	.st28{fill-rule:evenodd;clip-rule:evenodd;fill:#6D5C46;}
	.st29{fill-rule:evenodd;clip-rule:evenodd;fill:#4E3F2D;}
	.st30{fill-rule:evenodd;clip-rule:evenodd;fill:#33271A;}
	.st31{fill-rule:evenodd;clip-rule:evenodd;fill:#DC9430;}
	.st32{fill-rule:evenodd;clip-rule:evenodd;fill:#F1C930;}
	.st33{fill-rule:evenodd;clip-rule:evenodd;fill:#E3E4E5;}
	.st34{fill-rule:evenodd;clip-rule:evenodd;fill:#EFE096;}
	.st35{fill-rule:evenodd;clip-rule:evenodd;fill:#EDCB86;}
</style>
<g id="Capa_1" class="st0">
	<g id="Capa_1_1_">
		<g class="st1">
			<g>
				<g>
					<g>
						<circle class="st2" cx="249.9" cy="249.9" r="210.1"/>
					</g>
				</g>
			</g>
			<g>
				<g>
					<path class="st3" d="M39.8,249.9c0-116,94.1-210.1,210.1-210.1S460,133.9,460,249.9"/>
				</g>
			</g>
			<g>
				<g>
					<path class="st4" d="M249.9,472.8C127,472.8,27,372.8,27,249.9S127,27,249.9,27s222.9,100,222.9,222.9S372.8,472.8,249.9,472.8
						z M249.9,52.6c-108.8,0-197.3,88.5-197.3,197.3s88.5,197.3,197.3,197.3s197.3-88.5,197.3-197.3S358.7,52.6,249.9,52.6z"/>
				</g>
			</g>
			<g>
				<g>
					<path class="st2" d="M39.8,249.9H460H39.8z"/>
				</g>
				<g>
					<rect x="39.8" y="237.1" class="st4" width="420.2" height="25.6"/>
				</g>
			</g>
			<g>
				<circle class="st2" cx="249.9" cy="249.9" r="77"/>
				<path class="st4" d="M249.9,339.8c-49.5,0-89.8-40.3-89.8-89.8s40.3-89.8,89.8-89.8s89.8,40.3,89.8,89.8
					S299.4,339.8,249.9,339.8z M249.9,185.7c-35.4,0-64.3,28.8-64.3,64.3c0,35.4,28.8,64.3,64.3,64.3c35.4,0,64.3-28.8,64.3-64.3
					C314.1,214.5,285.3,185.7,249.9,185.7z"/>
			</g>
			<g>
				<circle class="st2" cx="249.9" cy="249.9" r="32.8"/>
				<path class="st4" d="M249.9,295.5c-25.1,0-45.6-20.4-45.6-45.6c0-25.1,20.4-45.6,45.6-45.6c25.1,0,45.6,20.4,45.6,45.6
					C295.4,275,275,295.5,249.9,295.5z M249.9,230c-11,0-20,9-20,20s9,20,20,20s20-9,20-20C269.8,238.9,260.9,230,249.9,230z"/>
			</g>
			<g>
				<path class="st2" d="M124.2,177.1L102,164.2c17.4-30,43-53.8,74.2-68.8l11.1,23.1C160.8,131.3,138.9,151.5,124.2,177.1z"/>
			</g>
		</g>
	</g>
	<g id="Capa_2_1_" class="st1">
		<g>
			<path class="st5" d="M249.9,5C385,5,494.6,114.5,494.6,249.7S385,494.4,249.9,494.4c-135.5,0-245-109.5-245-244.7
				S114.4,5,249.9,5L249.9,5z"/>
			<path class="st6" d="M249.9,5C385,5,494.6,114.5,494.6,249.7S385,494.4,249.9,494.4V5z"/>
			<path class="st7" d="M248.6,114.5h1.2h0.9c117,0,211.4,110.8,211.4,135.2s-94.4,135.2-211.4,135.2h-0.9h-1.2
				c-117,0-211.4-110.8-211.4-135.2C37.2,225.3,131.7,114.5,248.6,114.5L248.6,114.5z M249.9,190.5c32.7,0,59.2,26.5,59.2,59.2
				S282.6,309,249.9,309c-33,0-59.2-26.5-59.2-59.2S216.8,190.5,249.9,190.5L249.9,190.5z M248.9,149.4l0.9,0.3l0.6-0.3
				c90.7,0,164.2,82.4,164.2,100.3S341.2,350,250.5,350l-0.6-0.3L249,350c-90.7,0-164.2-82.4-164.2-100.3S158.2,149.4,248.9,149.4
				L248.9,149.4z"/>
			<path class="st8" d="M249.9,114.5h0.9c117,0,211.4,110.8,211.4,135.2s-94.4,135.2-211.4,135.2h-0.9v-35.2l0.6,0.3
				c90.7,0,164.2-82.4,164.2-100.3s-73.4-100.3-164.2-100.3l-0.6,0.3L249.9,114.5L249.9,114.5z M249.9,309V190.5
				c32.7,0,59.2,26.5,59.2,59.2S282.6,309,249.9,309L249.9,309z"/>
		</g>
	</g>
</g>
<g id="Capa_2" class="st0">
	<g class="st1">
		<path class="st9" d="M249.3,4.6c135.5,0,245.1,109.6,245.1,244.7c0,135.5-109.6,245.1-245.1,245.1
			C114.2,494.4,4.6,384.8,4.6,249.3C4.6,114.2,114.2,4.6,249.3,4.6L249.3,4.6z"/>
		<path class="st10" d="M249.3,4.6c135.5,0,245.1,109.6,245.1,244.7c0,135.5-109.6,245.1-245.1,245.1V4.6z"/>
		<path class="st11" d="M350.6,94.7c-46,5.9-93.8,25.6-133,53.7C81.4,246,126.8,404.6,264.8,388.2c58.3-6.8,90.7-52.8,89.5-98.5
			c-0.6-24.1-10.2-42.3-30.6-67c-36.7-43.8-13.9-92.9,31.8-118.2C368.8,97.2,364.5,92.9,350.6,94.7L350.6,94.7z"/>
		<path class="st12" d="M350.6,94.7c-33.9,4.3-69.1,16.4-101.2,33.6v261.1c5.2,0,10.2-0.6,15.4-1.2c58.3-6.8,90.7-52.8,89.5-98.5
			c-0.6-24.1-10.2-42.3-30.6-67c-36.7-43.8-13.9-92.9,31.8-118.2C368.8,97.2,364.5,92.9,350.6,94.7L350.6,94.7z"/>
		<path class="st13" d="M295,220.6c9,0,16,9,16,20.1c0,11.4-7.1,20.4-16,20.4c-9,0-16-9-16-20.4C279,229.6,286.1,220.6,295,220.6
			L295,220.6z"/>
		<path class="st13" d="M316.3,262.6c3.4,0,6.2,3.4,6.2,7.7c0,4-2.8,7.4-6.2,7.4c-3.4,0-5.9-3.4-5.9-7.4
			C310.5,266,312.9,262.6,316.3,262.6L316.3,262.6z"/>
	</g>
</g>
<g id="Capa_3" class="st0">
	<g class="st1">
		<path class="st8" d="M249.3,4.6c135.5,0,245.1,109.6,245.1,244.7c0,135.5-109.6,245.1-245.1,245.1
			C114.2,494.4,4.6,384.8,4.6,249.3C4.6,114.2,114.2,4.6,249.3,4.6L249.3,4.6z"/>
		<path class="st14" d="M249.3,4.6c135.5,0,245.1,109.6,245.1,244.7c0,135.5-109.6,245.1-245.1,245.1V4.6z"/>
		<path class="st15" d="M89.5,306.1c7.1,2.5,9.3,17.6,22.8,16.4c6.8-0.6,5.6-2.2,2.8-8c-7.7-17-27.8-62.7-10.5-94.1
			c21.6-38.9,39.8-55.2,41.7-64.8c1.5-9.3,13,13,0,38.9c-8.3,16.4-3.1,29,1.9,36.1c8.3,11.4,5.2,4.6,6.2-4.3
			c1.9-17,10.8-50.9,51.5-74.1c56.2-31.8,9.6-82.7,18.8-87c9.6-4.3,65.7,18.8,84.9,88c18.8,69.1-1.9,88.9,9.3,93.2
			c11.4,4.3,71-36.1,78.7-52.5c1.9-3.7,4.3-2.5,6.5,2.5c7.1,16,10.8,69.1-28.4,103.7c-4,3.4-7.7,8,0.3,7.4
			c13-0.6,34.6-4.3,50.3-18.8c9-7.7,13-21.6,10.8,1.9c-1.5,16-10.5,42.3-48.8,62.7c-26.5,14.2-44.4,43.8-74.4,63
			c-31.5,20.1-76.8,23.1-112,12c-44.4-13.6-33.3-48.5-79.3-70.1c-24.4-11.4-35.8-40.1-36.1-49.4C86.4,306.1,87,305.5,89.5,306.1
			L89.5,306.1z"/>
		<path class="st16" d="M249.3,72.2c20.7,11.4,47.8,36.7,60.2,80.9c18.8,69.1-1.9,88.9,9.3,93.2c11.4,4.3,71-36.1,78.7-52.5
			c1.9-3.7,4.3-2.5,6.5,2.5c7.1,16,10.8,69.1-28.4,103.7c-4,3.4-7.7,8,0.3,7.4c13-0.6,34.6-4.3,50.3-18.8c9-7.7,13-21.6,10.8,1.9
			c-1.5,16-10.5,42.3-48.8,62.7c-26.5,14.2-44.4,43.8-74.4,63c-18.2,11.7-41.4,17.6-64.5,18.5V72.2z"/>
		<path class="st7" d="M241.3,423.7c0,0-42.6-1.2-54-25c-11.7-23.8,11.4-29.6,2.5-42.3c-9-12.7-15.4-23.8-5.9-20.4
			c9.3,3.4,36.1,21.6,37.3,6.2c1.2-15.7-13.9-36.7-0.3-53.1c13.3-16.4,27.5-20.7,28.1-40.1c0.3-19.4,16.7,11.1,6.8,26.5
			c-9.9,15.7-19.4,20.1-3.7,31.5c15.4,11.7,19.4,6.5,18.5,20.4c-0.9,13.9,20.1,21.6,31.8,2.8c11.7-19.1-5.9-44.4-2.5-43.8
			c3.4,0.9,24.7,34.3,13,55.9c-5.6,10.2-5.2,14.5-3.4,18.8C332.1,413.2,284.2,425,241.3,423.7L241.3,423.7z"/>
		<path class="st8" d="M249.3,244.7c2.8-9.6,15.4,17,6.5,30.9c-2.2,3.7-4.3,6.5-6.5,9.3V244.7z M249.3,305.2
			c0.9,0.6,1.9,1.2,2.8,1.9c15.4,11.7,19.4,6.5,18.5,20.4c-0.9,13.9,20.1,21.6,31.8,2.8c11.7-19.1-5.9-44.4-2.5-43.8
			c3.4,0.9,24.7,34.3,13,55.9c-5.6,10.2-5.2,14.5-3.4,18.8c21,48.8-19.4,62-60.2,62.7V305.2z"/>
	</g>
</g>
<g id="Capa_4" class="st0">
	<g class="st1">
		<path class="st17" d="M249.3,5C384.6,5,494,114.4,494,249.3C494,384.6,384.6,494,249.3,494C114.4,494,5,384.6,5,249.3
			C5,114.4,114.4,5,249.3,5L249.3,5z"/>
		<path class="st18" d="M249.3,5C384.6,5,494,114.4,494,249.3C494,384.6,384.6,494,249.3,494V5z"/>
		<path class="st19" d="M238.9,77.4c-47.8,38.8-188.6,213.5-23.7,305.4c36.4,20.3,24.3,64.1,24.3,64.1c4.3,0.9,15.1,0.9,19.4,0
			c0,0-12-43.4,24.3-64.1c187.3-106.9,12.3-176.2-23.4-305C256.7,66.6,247.2,70.6,238.9,77.4L238.9,77.4z"/>
		<path class="st20" d="M249.3,447.5c3.7,0,7.4-0.3,9.6-0.6c0,0-12-43.4,24.3-64.1c187.3-106.9,12.3-176.2-23.4-305
			c-1.8-6.5-5.9-7.7-10.5-6.5V447.5z"/>
	</g>
</g>
<g id="Capa_5" class="st0">
	<g class="st1">
		<path class="st21" d="M249.7,5C384.6,5,494,114.4,494,249.3C494,384.6,384.6,494,249.7,494S5,384.6,5,249.3
			C5,114.4,114.7,5,249.7,5L249.7,5z"/>
		<path class="st22" d="M249.7,5C384.6,5,494,114.4,494,249.3C494,384.6,384.6,494,249.7,494V5z"/>
		<path class="st23" d="M127,268.1c43.8-0.6,79.5,41.6,62.9,82.9c-13.2,33-49,38.8-77.6,20.3c-29.9-18.8-58.2-56.1-25-87.5
			C98.1,274,112.2,268.8,127,268.1L127,268.1z M308.8,68.8c54.2,0,49.6,88.7-8.3,85.4c-53.9-3.4-51.1-77.3,0.6-85
			C303.6,68.8,306,68.5,308.8,68.8L308.8,68.8z M157.8,82.6c73,3.1,64.7,111.5-3.4,114.9c-36.1,1.8-66.2-24.7-60.4-63.2
			C98.7,104.2,127.3,81.4,157.8,82.6L157.8,82.6z M405,185.9c37.3-0.3,49.3,34.8,39.1,65.6c-7.4,22.2-25.3,49.6-43.4,64.4
			c-21,16.9-45.9-0.3-53-23.7C335.6,252.7,356.6,185.3,405,185.9L405,185.9z M300.5,322.7c35.4-0.9,63.2,36.7,62.5,71.2
			c-0.6,31.4-24,61.6-56.7,61.3c-27.7-0.3-45.3-21.6-43.8-48.4c0.6-11.7,4.3-25,5.5-37.3C270.9,347.6,271.2,322.1,300.5,322.7
			L300.5,322.7z M259.2,184.9c52.1,0.3,69.6,68.4,34.5,103.8c-39.4,40.1-105.4-0.6-92.1-57.3C208.1,205,231.8,184.3,259.2,184.9
			L259.2,184.9z"/>
		<path class="st24" d="M249.7,304.5V185.6c3.1-0.3,6.2-0.6,9.6-0.6c52.1,0.3,69.6,68.4,34.5,103.8
			C280.8,302,264.8,306.3,249.7,304.5L249.7,304.5z M308.8,68.8c54.2,0,49.6,88.7-8.3,85.4c-53.9-3.4-51.1-77.3,0.6-85
			C303.6,68.8,306,68.5,308.8,68.8L308.8,68.8z M405,185.9c37.3-0.3,49.3,34.8,39.1,65.6c-7.4,22.2-25.3,49.6-43.4,64.4
			c-21,16.9-45.9-0.3-53-23.7C335.6,252.7,356.6,185.3,405,185.9L405,185.9z M300.5,322.7c35.4-0.9,63.2,36.7,62.5,71.2
			c-0.6,31.4-24,61.6-56.7,61.3c-27.7-0.3-45.3-21.6-43.8-48.4c0.6-11.7,4.3-25,5.5-37.3C270.9,347.6,271.2,322.1,300.5,322.7
			L300.5,322.7z"/>
	</g>
</g>
<g id="Capa_6" class="st0">
	<g class="st1">
		<path class="st25" d="M249.7,5C384.6,5,494,114.4,494,249.3C494,384.6,384.6,494,249.7,494C114.4,494,5,384.6,5,249.3
			C5,114.4,114.4,5,249.7,5L249.7,5z"/>
		<path class="st26" d="M249.7,5C384.6,5,494,114.4,494,249.3C494,384.6,384.6,494,249.7,494V5z"/>
		<path class="st27" d="M110.1,373.5c-29-8.3-30.2-16.6-21-38.8c35.1-86,86.6-166.4,132.5-215.4c8.6-9.2,20.6-7.7,30.5,0
			c14.5,10.8,16.9,29,30.5,47.1c4.9,6.8,40.7,5.5,45.6,12.9c4.3,6.5,8.9,13.6,13.2,21c5.2,8.9,10.2,17.9,14.8,26.2
			c10.2,18.2,12,24,0.9,42.2L298,365.8c-9.2,15.1-17.3,20-34.8,20C204.1,386.8,142.4,382.5,110.1,373.5L110.1,373.5z M395.1,300.8
			c5.2,11.1,10.2,22.5,14.8,33.9c9.2,22.2,8.3,30.5-21,38.8c-12,3.4-28,6.2-46.5,8c-16.6,1.8-14.5-7.7-7.4-18.8l31.1-51.8
			C380.6,287.6,383.1,275.2,395.1,300.8L395.1,300.8z"/>
		<path class="st28" d="M249.7,117.5c0.6,0.3,1.5,0.9,2.5,1.8c14.5,10.8,16.9,29,30.5,47.1c4.9,6.8,40.7,5.5,45.6,12.9
			c4.3,6.5,8.9,13.6,13.2,21c5.2,8.9,10.2,17.9,14.8,26.2c10.2,18.2,12,24,0.9,42.2L298,365.8c-9.2,15.1-17.3,20-34.8,20
			c-4.6,0.3-9.2,0.3-13.6,0.3V117.5z M319.3,106.1c12.6,0,29.3,13.2,29.3,25.3c0,11.7-16.3,26.5-29,26.5
			c-12.9,0-16.9-14.8-16.9-26.5C302.7,119.3,306.3,106.1,319.3,106.1L319.3,106.1z M395.1,300.8c5.2,11.1,10.2,22.5,14.8,33.9
			c9.2,22.2,8.3,30.5-21,38.8c-12,3.4-28,6.2-46.5,8c-16.6,1.8-14.5-7.7-7.4-18.8l31.1-51.8C380.6,287.6,383.1,275.2,395.1,300.8
			L395.1,300.8z"/>
	</g>
</g>
<g id="Capa_7" class="st0">
	<g class="st1">
		<path class="st29" d="M249.3,5C384.3,5,494,114.4,494,249.3C494,384.6,384.3,494,249.3,494S5,384.6,5,249.3
			C5,114.4,114.4,5,249.3,5L249.3,5z"/>
		<path class="st30" d="M249.3,5C384.3,5,494,114.4,494,249.3C494,384.6,384.3,494,249.3,494V5z"/>
		<path class="st27" d="M254.9,370.1L355,195.7c2.5-4.6-0.6-9.6-5.5-9.6l-200.9,0.6c-6.2,0-8.6,4.3-5.5,9.6l101.1,173.8
			C247.2,375.7,251.5,375.7,254.9,370.1L254.9,370.1z M214.2,444.7L168,418.2c-4.9-3.1-7.4-6.8-7.4-12.6v-24.7
			c0-9.2,4.3-10.5,11.4-6.2l62.2,35.7c8.3,5.5,21,5.5,29.3,0l61.9-35.7c7.4-4.3,11.7-3.1,11.7,6.2v24.7c0,5.9-2.5,9.6-7.4,12.6
			l-46.5,26.5C260.4,458.3,237.3,458.3,214.2,444.7L214.2,444.7z M434.8,184v53.6c0,5.5-2.2,9.9-7.1,12.6l-21.6,12.3
			c-8,4.6-11.1,1.5-11.1-6.8V184c0.6-10.2-5.9-21-14.8-25.3l-61.9-36.1c-7.4-4-8.6-8.3-0.6-12.9l21.6-12.6c4.9-2.8,9.6-2.5,14.5,0.3
			l46.5,26.8C423.1,137.5,434.8,157.5,434.8,184L434.8,184z M98.7,123.6l46.2-26.8c4.9-2.8,9.9-3.1,14.5-0.3l21.6,12.3
			c8,4.6,6.8,9.2-0.3,13.2l-62.2,35.7c-8.9,4.6-15.1,15.7-14.5,25.6v71.5c0,8.3-3.4,11.7-11.1,7.1l-21.6-12.3
			c-4.9-2.8-7.1-7.1-7.1-12.9v-53.3C64.2,156.9,75.6,136.9,98.7,123.6L98.7,123.6z"/>
		<path class="st28" d="M254.9,370.1L355,195.7c2.5-4.6-0.6-9.6-5.5-9.6l-100.1,0.3v188C251.2,374.4,253.4,372.9,254.9,370.1
			L254.9,370.1z M249.3,414.5v40.4c11.4-0.3,22.8-3.4,33.9-10.2l46.5-26.5c4.9-3.1,7.4-6.8,7.4-12.6v-24.7c0-9.2-4.3-10.5-11.7-6.2
			l-61.9,35.7C259.5,413,254.6,414.5,249.3,414.5L249.3,414.5z M434.8,184v53.6c0,5.5-2.2,9.9-7.1,12.6l-21.6,12.3
			c-8,4.6-11.1,1.5-11.1-6.8V184c0.6-10.2-5.9-21-14.8-25.3l-61.9-36.1c-7.4-4-8.6-8.3-0.6-12.9l21.6-12.6c4.9-2.8,9.6-2.5,14.5,0.3
			l46.5,26.8C423.1,137.5,434.8,157.5,434.8,184L434.8,184z"/>
	</g>
</g>
<g id="Capa_8" class="st0">
	<g class="st1">
		<path class="st12" d="M249.3,5c135.4,0,244.8,109.5,244.8,244.5S384.7,494,249.3,494C114.3,494,4.8,384.5,4.8,249.5
			S114.3,5,249.3,5L249.3,5z"/>
		<path class="st9" d="M249.3,5c135.4,0,244.8,109.5,244.8,244.5S384.7,494,249.3,494V5z"/>
		<path class="st13" d="M248.7,72.5L248.7,72.5c8,0,14.8,6.8,14.8,15.1v14.8l4.9-4.9c5.9-5.9,15.4-5.9,21.3,0l0,0
			c5.5,5.9,5.5,15.4,0,21.3l-26.2,25.9v79.2l69.7-40.1l9.6-35.5c2.2-8,10.5-12.9,18.2-10.8l0,0c8,2.2,12.9,10.5,10.8,18.5l-1.9,6.5
			l12.9-7.4c7.1-4.3,16.3-1.8,20.3,5.5l0,0c4.3,7.1,1.8,16.3-5.2,20.3l-12.9,7.4l6.5,1.9c8,2.2,12.6,10.5,10.5,18.2l0,0
			c-2.2,8-10.2,12.9-18.2,10.8l-35.5-9.6l-67.8,39.2l66.6,38.5l35.5-9.6c8-2.2,16.3,2.8,18.5,10.8l0,0c2.2,7.7-2.8,16-10.5,18.2
			l-6.8,1.9l12.9,7.4c7.1,4,9.6,13.3,5.5,20.3l0,0c-4,7.4-13.3,9.9-20.7,5.5l-12.6-7.4l1.5,6.5c2.2,8-2.5,16.3-10.5,18.5l0,0
			c-8,2.2-16.3-2.8-18.5-10.8l-9.2-35.5l-68.8-39.5v80.5l26.2,25.9c5.5,5.9,5.5,15.4,0,21.3l0,0c-5.9,5.9-15.4,5.9-21.3,0l-4.9-4.9
			v14.8c0,8.3-6.8,15.1-14.8,15.1l0,0c-8.3,0-15.1-6.8-15.1-15.1v-14.8l-4.9,4.9c-5.5,5.9-15.1,5.9-21,0l0,0
			c-5.9-5.9-5.9-15.4,0-21.3l25.9-25.9V276l-66.9,38.5l-9.2,35.5c-2.2,8-10.5,12.6-18.5,10.5l0,0c-8-2.2-12.6-10.5-10.5-18.2
			l1.5-6.8l-12.9,7.7c-7.1,4-16.3,1.5-20.3-5.6l0,0c-4-7.1-1.5-16.3,5.5-20.7l12.6-7.4l-6.5-1.5c-7.7-2.2-12.6-10.5-10.5-18.5l0,0
			c2.2-8,10.5-12.6,18.5-10.8l35.5,9.6l68.4-39.5l-69.7-40.1l-35.5,9.6c-8,1.8-16.3-2.8-18.2-10.8l0,0c-2.2-8,2.5-16.3,10.5-18.5
			l6.5-1.5l-12.9-7.4c-7.1-4.3-9.6-13.6-5.2-20.7l0,0c4-7.1,13.3-9.6,20.3-5.5l12.9,7.4l-1.8-6.5c-2.2-7.7,2.8-16,10.5-18.2l0,0
			c8-2.2,16.3,2.5,18.5,10.5l9.6,35.5l67.8,39.2v-77.1l-25.9-25.9c-5.9-5.9-5.9-15.4,0-21.3l0,0c5.9-5.9,15.4-5.9,21,0l4.9,4.9V87.6
			C233.6,79.3,240.4,72.5,248.7,72.5L248.7,72.5z"/>
		<path class="st11" d="M249.3,72.5c8,0.3,14.2,7.1,14.2,15.1v14.8l4.9-4.9c5.9-5.9,15.4-5.9,21.3,0l0,0c5.5,5.9,5.5,15.4,0,21.3
			l-26.2,25.9v79.2l69.7-40.1l9.6-35.5c2.2-8,10.5-12.9,18.2-10.8l0,0c8,2.2,12.9,10.5,10.8,18.5l-1.9,6.5l12.9-7.4
			c7.1-4.3,16.3-1.8,20.3,5.5l0,0c4.3,7.1,1.8,16.3-5.2,20.3l-12.9,7.4l6.5,1.9c8,2.2,12.6,10.5,10.5,18.2l0,0
			c-2.2,8-10.2,12.9-18.2,10.8l-35.5-9.6l-67.8,39.2l66.6,38.5l35.5-9.6c8-2.2,16.3,2.8,18.5,10.8l0,0c2.2,7.7-2.8,16-10.5,18.2
			l-6.8,1.9l12.9,7.4c7.1,4,9.6,13.3,5.5,20.3l0,0c-4,7.4-13.3,9.9-20.7,5.5l-12.6-7.4l1.5,6.5c2.2,8-2.5,16.3-10.5,18.5l0,0
			c-8,2.2-16.3-2.8-18.5-10.8l-9.2-35.5l-68.8-39.5v80.5l26.2,25.9c5.5,5.9,5.5,15.4,0,21.3l0,0c-5.9,5.9-15.4,5.9-21.3,0l-4.9-4.9
			v14.8c0,8-6.2,14.8-14.2,15.1V72.5z"/>
	</g>
</g>
<g id="Capa_9" class="st0">
	<g class="st1">
		<path class="st7" d="M249.3,4c135.9,0,245.8,109.9,245.8,245.5S385.3,495,249.3,495C113.7,495,3.8,385.1,3.8,249.5
			S113.7,4,249.3,4L249.3,4z"/>
		<path class="st31" d="M249.3,4c135.9,0,245.8,109.9,245.8,245.5S385.3,495,249.3,495V4z"/>
		<path class="st13" d="M106.3,321.9L269.5,69.6c10.8-17,13.3-19.2,7.7,1.9l-39.6,148.3l151.7-52c6.5-2.5,6.5,4.3,3.4,9.3
			L229.5,429.4c-10.8,17-13.3,19.2-7.7-1.9l39.6-148.3l-151.7,52C103.2,333.7,103.2,326.9,106.3,321.9L106.3,321.9z"/>
		<path class="st32" d="M249.3,100.3l20.1-30.6c10.8-17,13.3-19.2,7.7,1.9l-27.9,103.7V100.3z M249.3,215.8l139.9-48
			c6.5-2.5,6.5,4.3,3.4,9.3L249.3,398.7v-74.9l12.1-44.6l-12.1,4V215.8z"/>
	</g>
</g>
<g id="Capa_10" class="st0">
	<g class="st1">
		<path class="st17" d="M249.3,5c135.4,0,244.8,109.5,244.8,244.5S384.7,494,249.3,494C114.3,494,4.8,384.5,4.8,249.5
			S114.3,5,249.3,5L249.3,5z"/>
		<path class="st18" d="M249.3,5c135.4,0,244.8,109.5,244.8,244.5S384.7,494,249.3,494V5z"/>
		<path class="st19" d="M193.2,86.7c125.2-72.8,279.3,34.5,243.9,190.9C399.2,442.8,237.3,463.5,110,407.7c-29-12.6-27.7-37-4-55.5
			C230.8,256,242.9,199.2,250.9,198.3c11.1-1.2-3.4,89.1,21.9,97.1c27.4,8.3,75.2-42.9,74-107.9c-0.9-65.1-67.5-103.3-153.2-88.8
			C172.3,102.1,173.8,97.8,193.2,86.7L193.2,86.7z M240.1,317.6c-16,14.2-14.5,13.6-45.3,41.9c-17.3,15.7-22.5,19.1-19.1,20
			c7.7,2.5,73.1,0.6,60.4-46.6c-0.6-2.2,4.6-10.5,6.5-14.8C244.1,313.9,241.9,315.8,240.1,317.6L240.1,317.6z"/>
		<path class="st20" d="M249.3,66c110.4-19.4,218,78,187.8,211.5c-24.7,107.3-101.7,153.5-187.8,157.6V198.9
			c0.6-0.3,1.2-0.6,1.5-0.6c11.1-1.2-3.4,89.1,21.9,97.1c27.4,8.3,75.2-42.9,74-107.9c-0.9-49.9-40.1-84.2-97.4-90.6V66z"/>
	</g>
</g>
<g id="Capa_11" class="st0">
	<g class="st1">
		<path class="st27" d="M249.7,3.8c135.9,0,246.1,110.2,246.1,246.1S385.6,496,249.7,496S3.2,385.8,3.2,249.9S113.7,3.8,249.7,3.8
			L249.7,3.8z"/>
		<path class="st28" d="M249.7,3.8c135.9,0,246.1,110.2,246.1,246.1S385.6,496,249.7,496V3.8z"/>
		<path class="st13" d="M28.7,259.2c-3.4,42.8,22.7-42.5,83.2-64.9c112-41.3,131.3,72.6,170.1,115.1
			C378.8,414.7,488,285,437.7,168.9C356.4-20.7,46.7,40.7,28.7,259.2L28.7,259.2z M434.9,319.1c-1.6,8.4,0.6,11.2,5,12.1
			c8.1,1.6,12.4,2.5,17.4,9c5.3,6.8,11.8,2.8,11.5-11.2C468.1,307.3,440.2,295.2,434.9,319.1L434.9,319.1z M256.5,369.1
			c-0.3,10.6,10.6,7.4,16.8,6.8c2.8,0,5.3,0,7.1,2.2c5.6,6.5,11.2-1.9,20.5,2.2c21.4,9,13.3-37.6-14.6-38.8
			C273.6,340.8,257.1,348.6,256.5,369.1L256.5,369.1z M359.2,309.8c-15.8,18.6-46.9,7.4-62.4-6.2c-15.5-13.3-17.7-36.3-4.7-51.5
			C308.3,233.1,375.3,291.5,359.2,309.8L359.2,309.8z M397.4,306.4c11.5-1.2,25.8-16.8,29.2-31.3c4-16.4-4.7-32.3-19.2-35.4
			C384,235.3,374.7,308.5,397.4,306.4L397.4,306.4z"/>
		<path class="st33" d="M249.7,258.9c10.9,19.2,20.8,37.9,32.3,50.6C378.8,414.7,488,285,437.7,168.9
			c-34.8-81-110.8-116.1-188.1-113V258.9z M434.9,319.1c-1.6,8.4,0.6,11.2,5,12.1c8.1,1.6,12.4,2.5,17.4,9
			c5.3,6.8,11.8,2.8,11.5-11.2C468.1,307.3,440.2,295.2,434.9,319.1L434.9,319.1z M256.5,369.1c-0.3,10.6,10.6,7.4,16.8,6.8
			c2.8,0,5.3,0,7.1,2.2c5.6,6.5,11.2-1.9,20.5,2.2c21.4,9,13.3-37.6-14.6-38.8C273.6,340.8,257.1,348.6,256.5,369.1L256.5,369.1z
			 M359.2,309.8c-15.8,18.6-46.9,7.4-62.4-6.2c-15.5-13.3-17.7-36.3-4.7-51.5C308.3,233.1,375.3,291.5,359.2,309.8L359.2,309.8z
			 M397.4,306.4c11.5-1.2,25.8-16.8,29.2-31.3c4-16.4-4.7-32.3-19.2-35.4C384,235.3,374.7,308.5,397.4,306.4L397.4,306.4z"/>
	</g>
</g>
<g id="Capa_12" class="st0">
	<g class="st1">
		<path class="st7" d="M249.3,4c135.6,0,245.8,109.9,245.8,245.5S384.9,495,249.3,495S3.8,385.1,3.8,249.5S113.7,4,249.3,4L249.3,4z
			"/>
		<path class="st8" d="M249.3,4c135.6,0,245.8,109.9,245.8,245.5S384.9,495,249.3,495V4z"/>
		<path class="st23" d="M249.3,76.4c70,0,126.6,111.1,126.6,206.5c0,186.1-253.2,186.1-253.2,0C122.7,187.6,179.4,76.4,249.3,76.4
			L249.3,76.4z"/>
		<path class="st24" d="M249.3,76.4c70,0,126.6,111.1,126.6,206.5c0,92.9-63.2,139.6-126.6,139.6V76.4z"/>
	</g>
</g>
<g id="Capa_13" class="st0">
	<g class="st1">
		<path class="st15" d="M249.3,4C385.2,4,495,113.8,495,249.7C495,385.2,385.2,495,249.3,495C113.8,495,4,385.2,4,249.7
			C4,113.8,113.8,4,249.3,4L249.3,4z"/>
		<path class="st16" d="M249.3,4C385.2,4,495,113.8,495,249.7C495,385.2,385.2,495,249.3,495V4z"/>
		<path class="st19" d="M145.7,95.3L145.7,95.3c16.1,0,29.4,13.3,29.4,29.7v58.5c0,16.1-13.3,29.4-29.4,29.4l0,0
			c-16.4,0-29.7-13.3-29.7-29.4V125C116,108.6,129.3,95.3,145.7,95.3L145.7,95.3z M293.9,355.8c13.3,0,24.1,10.8,24.1,24.1v19.5
			c0,13.3-11.1,24.4-24.1,24.4h-82.3c-13.3,0-24.1-11.1-24.1-24.4v-19.5c0-13.3,10.8-24.1,24.1-24.1H293.9z M358.6,225.8
			c13.3,0,24.4,10.8,24.4,24.1v69c0,13.3-11.1,24.4-24.4,24.4c-38.4,0-77,0-115.4,0c-12.7,0-22.9-10.5-22.9-23.2
			c0-12.4,10.2-22.9,22.9-22.9h29.4V250c0-13.3,10.8-24.1,24.1-24.1H358.6z M140.4,225.8c-13.3,0-24.4,10.8-24.4,24.1v69
			c0,13.3,11.1,24.4,24.4,24.4h43c13.3,0,24.1-11.1,24.1-24.4v-34h22.9c16.4,0,29.7-13.3,29.7-29.7c0-16.1-13.3-29.4-29.7-29.4
			C200.5,225.8,170.5,225.8,140.4,225.8L140.4,225.8z M356.7,108.3L356.7,108.3c14.2,0,26.3,11.8,26.3,26.3v52
			c0,14.5-12.1,26.3-26.3,26.3l0,0c-14.5,0-26.3-11.8-26.3-26.3v-52C330.4,120,342.2,108.3,356.7,108.3L356.7,108.3z M217.2,75.5
			L217.2,75.5c16.1,0,29.4,13.3,29.4,29.4v78.6c0,16.1-13.3,29.4-29.4,29.4l0,0c-16.4,0-29.7-13.3-29.7-29.4v-78.6
			C187.5,88.8,200.8,75.5,217.2,75.5L217.2,75.5z M288.3,95.3L288.3,95.3c16.4,0,29.7,13.3,29.7,29.7v58.5
			c0,16.1-13.3,29.4-29.7,29.4l0,0c-16.1,0-29.4-13.3-29.4-29.4V125C258.9,108.6,272.2,95.3,288.3,95.3L288.3,95.3z"/>
		<path class="st20" d="M249.3,423.5v-67.8h44.6c13.3,0,24.1,10.8,24.1,24.1v19.5c0,13.3-11.1,24.1-24.1,24.1H249.3z M249.3,343.4
			v-46.1h23.2V250c0-13.3,10.8-24.1,24.1-24.1h61.9c13.3,0,24.4,10.8,24.4,24.1v69c0,13.3-11.1,24.4-24.4,24.4H249.3z M249.3,278.1
			v-45.5c6.5,5.6,10.8,13.6,10.8,22.6C260.2,264.5,255.8,272.5,249.3,278.1L249.3,278.1z M356.7,108.3L356.7,108.3
			c14.2,0,26.3,11.8,26.3,26.3v52c0,14.5-12.1,26.3-26.3,26.3l0,0c-14.5,0-26.3-11.8-26.3-26.3v-52
			C330.4,120,342.2,108.3,356.7,108.3L356.7,108.3z M288.3,95.3L288.3,95.3c16.4,0,29.7,13.3,29.7,29.7v58.5
			c0,16.1-13.3,29.4-29.7,29.4l0,0c-16.1,0-29.4-13.3-29.4-29.4V125C258.9,108.6,272.2,95.3,288.3,95.3L288.3,95.3z"/>
	</g>
</g>
<g id="Capa_14" class="st0">
	<g class="st1">
		<path class="st34" d="M249.3,8C382.7,8,491,116,491,249.7C491,383,382.7,491,249.3,491S8,383,8,249.7C8,116,116,8,249.3,8L249.3,8
			z"/>
		<path class="st35" d="M249.3,8C382.7,8,491,116,491,249.7C491,383,382.7,491,249.3,491V8z"/>
		<path class="st9" d="M111.5,122.4c-4.9,13.1,67.9,101,67.3,136.3c-0.3,17-83.1,45.3-62.7,51.1c13.4,4,61.8-3.7,58.7,9.1
			c-3.3,12.8-36.2,62.4-26.2,59.3c20.1-6.4,65.4-36.2,90.7-73.7c8.5-12.8,11.6-13.1,20.4,0c25,37.7,70.3,67.3,90.7,73.7
			c9.7,3-23.1-46.6-26.2-59.3c-3.3-12.8,45.3-5.2,58.7-9.1c20.4-5.8-62.4-34.1-62.7-51.1c-0.9-35.3,72.1-123.3,67-136.3
			c-4.6-12.2-82.8,40.2-123.6,82.5c-13.7,14-16.1,12.8-28.3,0C194.6,162.6,116,110.3,111.5,122.4L111.5,122.4z"/>
		<path class="st10" d="M249.3,295c3,0,6.1,3.3,10.3,9.7c25,37.7,70.3,67.3,90.7,73.7c9.7,3-23.1-46.6-26.2-59.3
			c-3.3-12.8,45.3-5.2,58.7-9.1c20.4-5.8-62.4-34.1-62.7-51.1c-0.9-35.3,72.1-123.3,67-136.3c-4.6-12.2-82.8,40.2-123.6,82.5
			c-6.4,6.7-10.3,9.7-14.3,10V295z"/>
	</g>
</g>
<g id="Capa_15">
	<g>
		<path class="st5" d="M249.7,7C383.5,7,492,115.5,492,249.7C492,383.5,383.5,492,249.7,492C115.5,492,7,383.5,7,249.7
			C7,115.5,115.5,7,249.7,7L249.7,7z"/>
		<path class="st6" d="M249.7,7C383.5,7,492,115.5,492,249.7C492,383.5,383.5,492,249.7,492V7z"/>
		<path class="st7" d="M249.7,62.3c29.6,0,58.1,7,83.1,19.6c-10.7-3.1-21.7-4.6-33.3-4.6c-70.3,0-127.1,57.1-127.1,127.4
			s56.8,127.1,127.1,127.1S426.9,275,426.9,204.7c0-6.7-0.6-13.4-1.5-19.9c7.3,20.2,11.3,41.9,11.3,64.8c0,103.3-83.7,187-187,187
			c-103.6,0-187.3-83.7-187.3-187C62.3,146.1,146.1,62.3,249.7,62.3L249.7,62.3z"/>
		<path class="st8" d="M249.7,62.3c29.6,0,58.1,7,83.1,19.6c-10.7-3.1-21.7-4.6-33.3-4.6c-17.7,0-34.5,3.7-49.8,10.4V62.3z
			 M249.7,321.8c15.3,6.4,32.1,10.1,49.8,10.1c70.3,0,127.4-56.8,127.4-127.1c0-6.7-0.6-13.4-1.5-19.9c7.3,20.2,11.3,41.9,11.3,64.8
			c0,103.3-83.7,187-187,187V321.8z"/>
	</g>
</g>
</svg>
