<?xml version="1.0" encoding="utf-8"?>
<!-- Generator: Adobe Illustrator 25.2.0, SVG Export Plug-In . SVG Version: 6.00 Build 0)  -->
<svg version="1.1" xmlns="http://www.w3.org/2000/svg" xmlns:xlink="http://www.w3.org/1999/xlink" x="0px" y="0px"
	 viewBox="0 0 500 500" style="enable-background:new 0 0 500 500;" xml:space="preserve">
<style type="text/css">
	.st0{display:none;}
	.st1{display:inline;}
	.st2{fill:#FFFFFF;}
	.st3{fill:#D35959;}
	.st4{fill:#262626;}
	.st5{fill-rule:evenodd;clip-rule:evenodd;fill:#A43A8F;}
	.st6{fill-rule:evenodd;clip-rule:evenodd;fill:#962480;}
	.st7{fill-rule:evenodd;clip-rule:evenodd;fill:#E3B633;}
	.st8{fill-rule:evenodd;clip-rule:evenodd;fill:#DA882E;}
	.st9{fill-rule:evenodd;clip-rule:evenodd;fill:#65ACDB;}
	.st10{fill-rule:evenodd;clip-rule:evenodd;fill:#4D85B0;}
	.st11{fill-rule:evenodd;clip-rule:evenodd;fill:#D2E9F7;}
	.st12{fill-rule:evenodd;clip-rule:evenodd;fill:#8BCBF3;}
	.st13{fill-rule:evenodd;clip-rule:evenodd;fill:#FFFFFF;}
</style>
<g id="Capa_1" class="st0">
	<g id="Capa_1_1_">
		<g class="st1">
			<g>
				<g>
					<g>
						<circle class="st2" cx="249.9" cy="249.9" r="210.1"/>
					</g>
				</g>
			</g>
			<g>
				<g>
					<path class="st3" d="M39.8,249.9c0-116,94.1-210.1,210.1-210.1S460,133.9,460,249.9"/>
				</g>
			</g>
			<g>
				<g>
					<path class="st4" d="M249.9,472.8C127,472.8,27,372.8,27,249.9S127,27,249.9,27s222.9,100,222.9,222.9S372.8,472.8,249.9,472.8
						z M249.9,52.6c-108.8,0-197.3,88.5-197.3,197.3s88.5,197.3,197.3,197.3s197.3-88.5,197.3-197.3S358.7,52.6,249.9,52.6z"/>
				</g>
			</g>
			<g>
				<g>
					<path class="st2" d="M39.8,249.9H460H39.8z"/>
				</g>
				<g>
					<rect x="39.8" y="237.1" class="st4" width="420.2" height="25.6"/>
				</g>
			</g>
			<g>
				<circle class="st2" cx="249.9" cy="249.9" r="77"/>
				<path class="st4" d="M249.9,339.8c-49.5,0-89.8-40.3-89.8-89.8s40.3-89.8,89.8-89.8s89.8,40.3,89.8,89.8
					S299.4,339.8,249.9,339.8z M249.9,185.7c-35.4,0-64.3,28.8-64.3,64.3c0,35.4,28.8,64.3,64.3,64.3c35.4,0,64.3-28.8,64.3-64.3
					C314.1,214.5,285.3,185.7,249.9,185.7z"/>
			</g>
			<g>
				<circle class="st2" cx="249.9" cy="249.9" r="32.8"/>
				<path class="st4" d="M249.9,295.5c-25.1,0-45.6-20.4-45.6-45.6c0-25.1,20.4-45.6,45.6-45.6c25.1,0,45.6,20.4,45.6,45.6
					C295.4,275,275,295.5,249.9,295.5z M249.9,230c-11,0-20,9-20,20s9,20,20,20s20-9,20-20C269.8,238.9,260.9,230,249.9,230z"/>
			</g>
			<g>
				<path class="st2" d="M124.2,177.1L102,164.2c17.4-30,43-53.8,74.2-68.8l11.1,23.1C160.8,131.3,138.9,151.5,124.2,177.1z"/>
			</g>
		</g>
	</g>
	<g id="Capa_2_1_" class="st1">
		<g>
			<path class="st5" d="M249.9,5C385,5,494.6,114.5,494.6,249.7S385,494.4,249.9,494.4c-135.5,0-245-109.5-245-244.7
				S114.4,5,249.9,5L249.9,5z"/>
			<path class="st6" d="M249.9,5C385,5,494.6,114.5,494.6,249.7S385,494.4,249.9,494.4V5z"/>
			<path class="st7" d="M248.6,114.5h1.2h0.9c117,0,211.4,110.8,211.4,135.2s-94.4,135.2-211.4,135.2h-0.9h-1.2
				c-117,0-211.4-110.8-211.4-135.2C37.2,225.3,131.7,114.5,248.6,114.5L248.6,114.5z M249.9,190.5c32.7,0,59.2,26.5,59.2,59.2
				S282.6,309,249.9,309c-33,0-59.2-26.5-59.2-59.2S216.8,190.5,249.9,190.5L249.9,190.5z M248.9,149.4l0.9,0.3l0.6-0.3
				c90.7,0,164.2,82.4,164.2,100.3S341.2,350,250.5,350l-0.6-0.3L249,350c-90.7,0-164.2-82.4-164.2-100.3S158.2,149.4,248.9,149.4
				L248.9,149.4z"/>
			<path class="st8" d="M249.9,114.5h0.9c117,0,211.4,110.8,211.4,135.2s-94.4,135.2-211.4,135.2h-0.9v-35.2l0.6,0.3
				c90.7,0,164.2-82.4,164.2-100.3s-73.4-100.3-164.2-100.3l-0.6,0.3L249.9,114.5L249.9,114.5z M249.9,309V190.5
				c32.7,0,59.2,26.5,59.2,59.2S282.6,309,249.9,309L249.9,309z"/>
		</g>
	</g>
</g>
<g id="Capa_2">
	<g>
		<path class="st9" d="M249.3,4.6c135.5,0,245.1,109.6,245.1,244.7c0,135.5-109.6,245.1-245.1,245.1
			C114.2,494.4,4.6,384.8,4.6,249.3C4.6,114.2,114.2,4.6,249.3,4.6L249.3,4.6z"/>
		<path class="st10" d="M249.3,4.6c135.5,0,245.1,109.6,245.1,244.7c0,135.5-109.6,245.1-245.1,245.1V4.6z"/>
		<path class="st11" d="M350.6,94.7c-46,5.9-93.8,25.6-133,53.7C81.4,246,126.8,404.6,264.8,388.2c58.3-6.8,90.7-52.8,89.5-98.5
			c-0.6-24.1-10.2-42.3-30.6-67c-36.7-43.8-13.9-92.9,31.8-118.2C368.8,97.2,364.5,92.9,350.6,94.7L350.6,94.7z"/>
		<path class="st12" d="M350.6,94.7c-33.9,4.3-69.1,16.4-101.2,33.6v261.1c5.2,0,10.2-0.6,15.4-1.2c58.3-6.8,90.7-52.8,89.5-98.5
			c-0.6-24.1-10.2-42.3-30.6-67c-36.7-43.8-13.9-92.9,31.8-118.2C368.8,97.2,364.5,92.9,350.6,94.7L350.6,94.7z"/>
		<path class="st13" d="M295,220.6c9,0,16,9,16,20.1c0,11.4-7.1,20.4-16,20.4c-9,0-16-9-16-20.4C279,229.6,286.1,220.6,295,220.6
			L295,220.6z"/>
		<path class="st13" d="M316.3,262.6c3.4,0,6.2,3.4,6.2,7.7c0,4-2.8,7.4-6.2,7.4c-3.4,0-5.9-3.4-5.9-7.4
			C310.5,266,312.9,262.6,316.3,262.6L316.3,262.6z"/>
	</g>
</g>
</svg>
